<?xml version="1.0" encoding="UTF-8"?>
<svg id="Layer_1" data-name="Layer 1" xmlns="http://www.w3.org/2000/svg" viewBox="0 0 390.7 270.55">
  <defs>
    <style>
      .cls-1 {
        fill: #d2aa6a;
      }
    </style>
  </defs>
  <g>
    <path class="cls-1" d="m175.27,3.76c18.62,0,36.09,9.82,50.82,34.47l9.93-18.52C220.24,9.16,200.84.01,182.78.01c-20.75,0-35.96,5.82-46.47,14.32,1.35.3,2.67.6,3.97.94,7.95-6.92,19.74-11.51,34.99-11.51Z"/>
    <path class="cls-1" d="m128.32,39.77c-2.47-1.5-5.02-2.86-7.65-4-2.14,5.61-3.17,11.37-3.17,16.8,0,44.9,47.63,54.46,82.12,69.85-1.4-6.16-2.13-12.53-2.13-19.01,0-3.76.25-7.48.75-11.13-33.14-13.76-70.89-21.68-69.93-52.5Z"/>
    <path class="cls-1" d="m186.82,201.04c-15.79,0-29.66-4.59-41.54-12.06-7.36,2.72-15.32,4.49-23.86,5.32,15.02,7.82,31.65,12.52,53.57,12.52,27.82,0,50.99-11.16,63.01-29.09-1.9-1.27-3.74-2.61-5.53-4.01-5.84,15.2-24.19,27.33-45.64,27.33Z"/>
    <path class="cls-1" d="m229.9,110.45c.66,3.46,1.5,6.92,2.55,10.35,3.3,10.79,8.2,20.21,14.43,28,.01-.2.01-.41.01-.61,0-16.83-6.73-28.7-16.99-37.73Z"/>
    <path class="cls-1" d="m186.84,139.54l-1.64-.7c-11.97,23.46-30.03,37.3-51.15,40.35-41.29,6.33-75.08-15.25-87.75-56.54-12.67-41.53,1.88-88.92,42-97.6,30.73-6.57,58.65,13.61,75.78,40.82h1.64l7.04-26.75c-19.94-13.14-35.19-19.71-60.53-19.71-46.45,0-88.45,37.54-88.45,83.99s40.12,83.99,86.34,83.99c41.53,0,64.05-21.59,76.72-47.86Z"/>
    <path class="cls-1" d="m303.23,35.74c-5.84-2.82-12.04-4.71-18.54-5.34v121.24c0,7.91-.53,14.7-1.56,20.57-.44,2.58-.99,4.99-1.62,7.23-.01.06-.03.13-.05.19-.19.68-.4,1.34-.62,2-.15.45-.3.9-.46,1.33-.06.16-.11.32-.17.47-1.27,3.48-2.8,6.53-4.57,9.25-5.76,8.86-14.12,14.1-24.51,18.78l.71,2.11c23.23-7.98,51.38-21.35,51.38-61.94V35.74Z"/>
    <path class="cls-1" d="m284.29,13.4c2.65-.22,5.32-.34,8.01-.34,3.87,0,7.51.15,10.97.43.28-6.83,1.95-9.7,5.35-11.62V0h-36.6v1.87c6.95.57,11.04,4.81,12.27,11.52Z"/>
    <path class="cls-1" d="m344.16,65.87h1.64l7.04-26.75c-19.94-13.14-35.19-19.71-60.53-19.71-46.45,0-88.45,37.54-88.45,83.99,0,40.39,30.33,74.02,68.62,82.12,1.29-2.63,2.39-5.63,3.27-9.06-23.13-7.6-40.93-26.34-49.37-53.83-12.67-41.53,1.88-88.92,42-97.6,30.73-6.57,58.65,13.61,75.78,40.82Z"/>
    <path class="cls-1" d="m365.27,138.84c-11.97,23.46-30.03,37.3-51.15,40.35-3.41.52-6.76.84-10.06.98-1.04,2.39-2.2,4.63-3.46,6.74,34.96-3.31,54.75-23.38,66.31-47.37l-1.64-.7Z"/>
  </g>
  <g>
    <g>
      <path class="cls-1" d="m14.46,264.45c-1.12,2.33-3.12,4.24-6.8,4.24-4.1,0-7.66-3.33-7.66-7.45s3.72-7.45,7.84-7.45c2.25,0,3.6.58,5.37,1.75l-.62,2.37h-.15c-1.52-2.41-3.99-4.2-6.72-3.62-3.56.77-4.85,4.97-3.72,8.65,1.12,3.66,4.12,5.58,7.78,5.01,1.87-.27,3.47-1.5,4.54-3.58l.15.06Z"/>
      <path class="cls-1" d="m30.6,261.24c0,4.1-3.43,7.45-7.55,7.45s-7.55-3.35-7.55-7.45,3.43-7.45,7.55-7.45,7.55,3.33,7.55,7.45Zm-2-1.71c-1.12-3.66-4.2-6.3-7.68-5.24-3.47,1.06-4.56,4.97-3.43,8.63,1.12,3.68,4.2,6.32,7.68,5.26,3.47-1.06,4.56-4.97,3.43-8.65Z"/>
      <path class="cls-1" d="m42.21,255.75l-.62,2.16h-.15c-1.19-2.79-2.7-3.85-4.35-3.85-2.06,0-3.25,1.16-3.37,2.41-.4,4.16,8.53,2.79,8.53,7.99,0,2.48-2.23,4.22-5.18,4.22-2.48,0-4.02-.83-5.64-2.06l.62-2.37h.15c1.06,2.12,3,4.02,5.72,4.02,1.77,0,3.25-1.14,3.41-2.46.54-4.43-8.4-3.02-8.4-8.24,0-1.69,1.35-3.79,4.7-3.79,1.6,0,3.35,1,4.58,1.96Z"/>
      <path class="cls-1" d="m58.48,255.4v11.8c0,.73.15,1.04.48,1.23v.15h-2.58v-.15c.31-.19.48-.5.48-1.23v-12.57l-5.74,9.94h-.19l-5.95-9.07v10.57c0,.89.62,2,1.31,2.35v.15h-2.79v-.15c.69-.35,1.31-1.46,1.31-2.35v-10.78l-.94-1.29h1.87l5.97,9.22,5.31-9.22h1.93v.17c-.33.19-.48.48-.48,1.23Z"/>
      <path class="cls-1" d="m69.53,266.05l-.46,2.52h-8.45v-.15c.31-.19.46-.5.46-1.23v-11.8c0-.73-.15-1.04-.46-1.23v-.17h7.78l.44,2.31-.1.08c-.96-1.08-2.25-2.23-4.56-2.23h-1.46v6.14l5.24-.46v1.06l-5.24-.44v7.95h1.69c2.29,0,4.02-1.19,4.99-2.45l.12.08Z"/>
      <path class="cls-1" d="m82.06,256.54l-.12.06c-.94-1.06-2.25-2.43-4.56-2.43h-.46v13.02c0,.73.17,1.04.48,1.23v.15h-2.58v-.15c.31-.19.48-.5.48-1.23v-13.02h-.46c-2.31,0-3.62,1.37-4.56,2.43l-.12-.06.67-2.54h10.57l.67,2.54Z"/>
      <path class="cls-1" d="m97.79,261.24c0,4.1-3.43,7.45-7.55,7.45s-7.55-3.35-7.55-7.45,3.43-7.45,7.55-7.45,7.55,3.33,7.55,7.45Zm-2-1.71c-1.12-3.66-4.2-6.3-7.68-5.24-3.47,1.06-4.56,4.97-3.43,8.63,1.12,3.68,4.2,6.32,7.68,5.26,3.47-1.06,4.56-4.97,3.43-8.65Z"/>
      <path class="cls-1" d="m108.38,266.05l-.46,2.52h-8.68v-.15c.33-.19.48-.5.48-1.23v-11.8c0-.75-.15-1.04-.48-1.23v-.17h2.58v.17c-.31.19-.46.48-.46,1.23v13.02h1.89c2.31,0,4.02-1.19,4.99-2.45l.12.08Z"/>
      <path class="cls-1" d="m124.1,261.24c0,4.1-3.43,7.45-7.55,7.45s-7.55-3.35-7.55-7.45,3.43-7.45,7.55-7.45,7.55,3.33,7.55,7.45Zm-2-1.71c-1.12-3.66-4.2-6.3-7.68-5.24-3.47,1.06-4.56,4.97-3.43,8.63,1.12,3.68,4.2,6.32,7.68,5.26,3.47-1.06,4.56-4.97,3.43-8.65Z"/>
      <path class="cls-1" d="m140.08,261.64v.17c-.31.19-.46.48-.46,1.23v2.25c-.56,1.21-2.56,3.41-6.64,3.41s-7.43-3.33-7.43-7.45,3.72-7.45,7.84-7.45c2.25,0,3.6.58,5.37,1.75l-.62,2.37h-.15c-1.52-2.41-3.99-4.2-6.72-3.62-3.56.77-4.85,4.97-3.72,8.65,1.12,3.66,3.85,5.72,7.55,5.24,1.25-.17,2.18-.75,2.87-1.5v-2.77c0-1.27-.58-2.06-1.6-2.12v-.17h3.7Z"/>
      <path class="cls-1" d="m152.92,254v.17c-.96.81-1.41,1.25-2.48,3.5l-2.66,5.72v3.81c0,.73.15,1.04.48,1.23v.15h-2.58v-.15c.31-.19.46-.5.46-1.23v-3.58s-3.5-6.55-3.93-7.41c-.46-.83-1.17-1.5-1.81-2.04v-.17h3.64v.17c-.54.54-.54,1.41.25,2.89l3.33,6.26,2.83-6.01c.87-1.96.77-2.52.02-3.14v-.17h2.46Z"/>
      <path class="cls-1" d="m169.31,255.75l-.62,2.16h-.15c-1.19-2.79-2.7-3.85-4.35-3.85-2.06,0-3.25,1.16-3.37,2.41-.4,4.16,8.53,2.79,8.53,7.99,0,2.48-2.23,4.22-5.18,4.22-2.48,0-4.02-.83-5.64-2.06l.62-2.37h.15c1.06,2.12,3,4.02,5.72,4.02,1.77,0,3.25-1.14,3.41-2.46.54-4.43-8.4-3.02-8.4-8.24,0-1.69,1.35-3.79,4.7-3.79,1.6,0,3.35,1,4.58,1.96Z"/>
      <path class="cls-1" d="m185.27,264.45c-1.12,2.33-3.12,4.24-6.8,4.24-4.1,0-7.66-3.33-7.66-7.45s3.72-7.45,7.84-7.45c2.25,0,3.6.58,5.37,1.75l-.62,2.37h-.15c-1.52-2.41-3.99-4.2-6.72-3.62-3.56.77-4.85,4.97-3.72,8.65,1.12,3.66,4.12,5.58,7.78,5.01,1.87-.27,3.47-1.5,4.54-3.58l.15.06Z"/>
      <path class="cls-1" d="m197.73,255.4v11.8c0,.73.15,1.04.46,1.23v.15h-2.58v-.15c.33-.19.48-.5.48-1.23v-7.18h-7.24v7.18c0,.73.15,1.04.46,1.23v.15h-2.58v-.15c.33-.19.48-.5.48-1.23v-11.8c0-.73-.15-1.04-.48-1.23v-.17h2.58v.17c-.31.19-.46.5-.46,1.23v4.47h7.24v-4.47c0-.73-.15-1.04-.48-1.23v-.17h2.58v.17c-.31.19-.46.5-.46,1.23Z"/>
      <path class="cls-1" d="m214.75,261.24c0,4.1-3.43,7.45-7.55,7.45s-7.55-3.35-7.55-7.45,3.43-7.45,7.55-7.45,7.55,3.33,7.55,7.45Zm-2-1.71c-1.12-3.66-4.2-6.3-7.68-5.24-3.47,1.06-4.56,4.97-3.43,8.63,1.12,3.68,4.2,6.32,7.68,5.26,3.47-1.06,4.56-4.97,3.43-8.65Z"/>
      <path class="cls-1" d="m231.31,261.24c0,4.1-3.43,7.45-7.55,7.45s-7.55-3.35-7.55-7.45,3.43-7.45,7.55-7.45,7.55,3.33,7.55,7.45Zm-2-1.71c-1.12-3.66-4.2-6.3-7.68-5.24-3.47,1.06-4.56,4.97-3.43,8.63,1.12,3.68,4.2,6.32,7.68,5.26,3.47-1.06,4.56-4.97,3.43-8.65Z"/>
      <path class="cls-1" d="m241.9,266.05l-.46,2.52h-8.68v-.15c.33-.19.48-.5.48-1.23v-11.8c0-.75-.15-1.04-.48-1.23v-.17h2.58v.17c-.31.19-.46.48-.46,1.23v13.02h1.89c2.31,0,4.02-1.19,4.99-2.45l.12.08Z"/>
    </g>
    <g>
      <path class="cls-1" d="m264.2,261.19c0,4.07-3.41,7.39-7.49,7.39s-7.49-3.32-7.49-7.39,3.41-7.39,7.49-7.39,7.49,3.3,7.49,7.39Zm-1.98-1.69c-1.11-3.63-4.17-6.25-7.62-5.2-3.45,1.05-4.52,4.93-3.41,8.56,1.11,3.65,4.17,6.27,7.62,5.22,3.45-1.05,4.52-4.93,3.41-8.59Z"/>
      <path class="cls-1" d="m274.08,256.52l-.1.06c-.93-1.05-2.23-2.41-4.52-2.41h-1.73v6.75l4.75-.43v1.05l-4.75-.45v6.01c0,.72.14,1.03.45,1.22v.14h-2.54v-.14c.31-.19.45-.5.45-1.22v-11.7c0-.72-.14-1.03-.45-1.22v-.17h7.78l.66,2.52Z"/>
      <path class="cls-1" d="m283.48,254v.17c-.33.19-.47.47-.47,1.22v9.72c0,3.57-2.48,4.75-4.52,5.45l-.06-.19c1.84-.83,2.95-1.86,2.95-5.26v-9.51c0-.83-.37-1.36-1.11-1.42v-.17h3.22Z"/>
      <path class="cls-1" d="m293.96,265.95l-.45,2.5h-8.38v-.14c.31-.19.45-.5.45-1.22v-11.7c0-.72-.14-1.03-.45-1.22v-.17h7.72l.43,2.29-.1.08c-.95-1.07-2.23-2.21-4.52-2.21h-1.44v6.09l5.2-.45v1.05l-5.2-.43v7.88h1.67c2.27,0,3.98-1.18,4.95-2.44l.12.08Z"/>
      <path class="cls-1" d="m306.43,268.31v.14h-3.18v-.14c.54-.54.1-1.28-.7-2.7l-2.21-3.86c-.31.02-.62.04-.93.04h-1.92v5.3c0,.72.14,1.03.45,1.22v.14h-2.54v-.14c.31-.19.45-.5.45-1.22v-11.7c0-.74-.14-1.03-.45-1.22v-.17h4c3.2,0,6.09,1.2,6.09,3.9,0,1.94-1.55,3.12-3.61,3.59l1.86,3.26c1.22,2.13,1.88,2.83,2.68,3.55Zm-2.56-10.4c0-1.61-.54-3.74-4.46-3.74h-1.92v7.45h1.92c3.9,0,4.46-2.13,4.46-3.71Z"/>
      <path class="cls-1" d="m317.53,255.74l-.62,2.15h-.14c-1.18-2.77-2.68-3.82-4.31-3.82-2.04,0-3.22,1.16-3.34,2.39-.39,4.13,8.46,2.77,8.46,7.92,0,2.46-2.21,4.19-5.14,4.19-2.46,0-3.98-.83-5.59-2.04l.62-2.35h.14c1.05,2.11,2.97,3.98,5.68,3.98,1.75,0,3.22-1.14,3.38-2.44.54-4.4-8.34-2.99-8.34-8.17,0-1.67,1.34-3.76,4.66-3.76,1.59,0,3.32.99,4.54,1.94Z"/>
      <path class="cls-1" d="m327.85,265.95l-.45,2.5h-8.38v-.14c.31-.19.45-.5.45-1.22v-11.7c0-.72-.14-1.03-.45-1.22v-.17h7.72l.43,2.29-.1.08c-.95-1.07-2.23-2.21-4.52-2.21h-1.44v6.09l5.2-.45v1.05l-5.2-.43v7.88h1.67c2.27,0,3.98-1.18,4.95-2.44l.12.08Z"/>
      <path class="cls-1" d="m340.69,254v.17c-.95.8-1.4,1.24-2.46,3.47l-2.64,5.68v3.78c0,.72.14,1.03.47,1.22v.14h-2.56v-.14c.31-.19.45-.5.45-1.22v-3.55s-3.47-6.5-3.9-7.35c-.45-.83-1.16-1.49-1.8-2.02v-.17h3.61v.17c-.54.54-.54,1.4.25,2.87l3.3,6.21,2.81-5.96c.87-1.94.76-2.5.02-3.12v-.17h2.44Z"/>
      <path class="cls-1" d="m360.6,264.36c-1.11,2.31-3.1,4.21-6.75,4.21-4.07,0-7.59-3.3-7.59-7.39s3.69-7.39,7.78-7.39c2.23,0,3.57.58,5.32,1.73l-.62,2.35h-.14c-1.51-2.39-3.96-4.17-6.67-3.59-3.53.76-4.81,4.93-3.69,8.59,1.11,3.63,4.09,5.53,7.72,4.97,1.86-.27,3.45-1.49,4.5-3.55l.14.06Z"/>
      <path class="cls-1" d="m364.13,255.39v11.7c0,.72.14,1.03.47,1.22v.14h-2.56v-.14c.31-.19.45-.5.45-1.22v-11.7c0-.72-.14-1.03-.45-1.22v-.17h2.56v.17c-.33.19-.47.5-.47,1.22Z"/>
      <path class="cls-1" d="m377.65,256.52l-.12.06c-.93-1.05-2.23-2.41-4.52-2.41h-.45v12.92c0,.72.17,1.03.47,1.22v.14h-2.56v-.14c.31-.19.47-.5.47-1.22v-12.92h-.45c-2.29,0-3.59,1.36-4.52,2.41l-.12-.06.66-2.52h10.48l.66,2.52Z"/>
      <path class="cls-1" d="m390.7,254v.17c-.95.8-1.4,1.24-2.46,3.47l-2.64,5.68v3.78c0,.72.14,1.03.47,1.22v.14h-2.56v-.14c.31-.19.45-.5.45-1.22v-3.55s-3.47-6.5-3.9-7.35c-.45-.83-1.16-1.49-1.8-2.02v-.17h3.61v.17c-.54.54-.54,1.4.25,2.87l3.3,6.21,2.81-5.96c.87-1.94.76-2.5.02-3.12v-.17h2.44Z"/>
    </g>
  </g>
</svg>